<?xml version="1.0" standalone="no"?>
<!DOCTYPE svg PUBLIC "-//W3C//DTD SVG 20010904//EN"
 "http://www.w3.org/TR/2001/REC-SVG-20010904/DTD/svg10.dtd">
<svg version="1.0" xmlns="http://www.w3.org/2000/svg"
 width="1200.000000pt" height="1200.000000pt" viewBox="0 0 1200.000000 1200.000000"
 preserveAspectRatio="xMidYMid meet">
<metadata>
Created by potrace 1.14, written by Peter Selinger 2001-2017
</metadata>
<g transform="translate(0.000000,1200.000000) scale(0.100000,-0.100000)"
fill="#000000" stroke="none">
<path d="M5827 11154 c-1 -1 -61 -5 -133 -8 -72 -4 -141 -9 -155 -11 -13 -2
-53 -6 -89 -9 -36 -4 -74 -8 -85 -10 -11 -2 -45 -7 -76 -10 -31 -4 -107 -16
-170 -27 -63 -11 -123 -22 -134 -23 -62 -11 -262 -59 -335 -80 -47 -14 -86
-25 -88 -25 -18 2 -426 -138 -497 -171 -11 -5 -49 -21 -85 -36 -138 -56 -531
-256 -602 -305 -14 -11 -29 -19 -32 -19 -9 0 -229 -144 -341 -223 -83 -59
-330 -252 -371 -291 -7 -6 -44 -40 -84 -76 -710 -635 -1252 -1502 -1510 -2420
-56 -198 -125 -523 -146 -690 -3 -25 -7 -56 -9 -70 -2 -14 -7 -61 -11 -105 -3
-44 -8 -89 -10 -100 -21 -110 -21 -782 0 -905 3 -14 7 -50 10 -80 3 -30 8 -80
11 -110 10 -85 64 -401 75 -435 5 -16 12 -46 15 -65 3 -19 8 -43 11 -52 3 -9
7 -26 9 -39 26 -134 144 -494 237 -719 60 -147 84 -197 174 -375 180 -355 402
-690 656 -990 566 -669 1305 -1192 2114 -1495 224 -85 569 -188 714 -213 14
-3 59 -12 100 -20 72 -15 110 -22 175 -33 17 -2 41 -6 55 -9 37 -6 88 -13 150
-20 30 -3 71 -8 90 -10 60 -7 152 -14 245 -21 111 -7 510 -7 585 0 30 3 93 8
140 11 47 4 96 8 110 10 14 2 52 6 85 10 81 9 193 25 260 39 11 2 40 7 65 11
59 9 330 70 400 90 114 32 168 48 255 77 94 31 265 93 300 108 11 5 65 28 120
51 611 255 1194 658 1684 1163 122 126 128 132 210 232 41 49 80 94 85 99 19
17 161 207 221 295 33 47 63 87 67 88 4 2 8 8 8 12 0 5 29 53 63 107 248 382
466 872 597 1338 65 233 135 574 154 750 3 28 8 75 12 105 15 134 27 364 28
530 0 143 -11 427 -19 485 -2 17 -6 53 -9 80 -14 144 -20 184 -52 365 -32 187
-52 272 -110 480 -14 52 -27 102 -29 110 -9 40 -99 292 -150 421 -57 145 -210
465 -283 594 -22 39 -50 87 -61 108 -63 115 -373 562 -421 607 -3 3 -39 45
-80 94 -186 223 -407 442 -645 641 -350 292 -780 561 -1185 739 -58 26 -114
51 -125 56 -84 40 -451 167 -591 206 -75 20 -329 81 -369 88 -16 3 -41 8 -55
11 -128 25 -274 46 -505 70 -123 13 -628 28 -638 19z m-2022 -8902 c-3 -3 -11
0 -18 7 -9 10 -8 11 6 5 10 -3 15 -9 12 -12z"/>
</g>
</svg>
